<svg width="11" height="11" viewBox="0 0 11 11" fill="none" xmlns="http://www.w3.org/2000/svg">
<g clip-path="url(#clip0_19_36)">
<path d="M9.625 5.27083V6.875H8.25C7.88533 6.875 7.53559 7.01987 7.27773 7.27773C7.01987 7.53559 6.875 7.88533 6.875 8.25V9.625H2.0625C1.88016 9.625 1.7053 9.55257 1.57636 9.42364C1.44743 9.2947 1.375 9.11984 1.375 8.9375V2.0625C1.375 1.88016 1.44743 1.7053 1.57636 1.57636C1.7053 1.44743 1.88016 1.375 2.0625 1.375H6.1875C6.36984 1.375 6.5447 1.30257 6.67364 1.17364C6.80257 1.0447 6.875 0.869836 6.875 0.6875C6.875 0.505164 6.80257 0.330295 6.67364 0.201364C6.5447 0.0724328 6.36984 0 6.1875 0L2.0625 0C1.51549 0 0.990886 0.217299 0.604092 0.604092C0.217299 0.990886 0 1.51549 0 2.0625L0 8.9375C0 9.48451 0.217299 10.0091 0.604092 10.3959C0.990886 10.7827 1.51549 11 2.0625 11H7.55517C8.10195 11 8.62637 10.7829 9.01313 10.3964L10.3959 9.01358C10.7826 8.6269 10.9999 8.10248 11 7.55563V5.27083C11 5.0885 10.9276 4.91363 10.7986 4.7847C10.6697 4.65577 10.4948 4.58333 10.3125 4.58333C10.1302 4.58333 9.9553 4.65577 9.82636 4.7847C9.69743 4.91363 9.625 5.0885 9.625 5.27083Z" fill="#2B2A2A"/>
<path d="M8.15513 0.821717L2.42596 6.55088C2.34 6.63682 2.29169 6.75338 2.29167 6.87492V8.24992C2.29167 8.37148 2.33996 8.48806 2.42591 8.57402C2.51186 8.65997 2.62844 8.70826 2.75 8.70826H4.125C4.24655 8.70823 4.36311 8.65993 4.44904 8.57397L10.1008 2.92226C10.292 2.73784 10.4326 2.50733 10.509 2.25288C10.5854 1.99844 10.5951 1.72861 10.5371 1.46934C10.4722 1.22821 10.3453 1.0083 10.1689 0.831501C9.99258 0.654703 9.77299 0.527197 9.53203 0.461683C9.29108 0.396169 9.03716 0.394936 8.79557 0.458105C8.55399 0.521274 8.33318 0.646641 8.15513 0.821717Z" fill="#2B2A2A"/>
</g>
<defs>
<clipPath id="clip0_19_36">
<rect width="11" height="11" fill="white"/>
</clipPath>
</defs>
</svg>
