<svg width="14" height="14" viewBox="0 0 14 14" fill="none" xmlns="http://www.w3.org/2000/svg">
<g clip-path="url(#clip0_19_20)">
<path d="M0.583876 2.77126H2.17972C2.49469 3.93014 3.68946 4.61426 4.84834 4.29929C5.59264 4.097 6.17408 3.51556 6.37637 2.77126H13.4159C13.7381 2.77126 13.9992 2.51012 13.9992 2.18799C13.9992 1.86586 13.7381 1.60473 13.4159 1.60473H6.37637C6.0614 0.445822 4.86663 -0.238305 3.70775 0.0766638C2.96345 0.27896 2.38201 0.860394 2.17972 1.6047H0.583876C0.261744 1.6047 0.000610352 1.86583 0.000610352 2.18797C0.000610352 2.5101 0.261744 2.77126 0.583876 2.77126Z" fill="#2A2A2A"/>
<path d="M13.416 6.4168H11.8202C11.5058 5.25808 10.3117 4.57357 9.153 4.88789C8.40809 5.08996 7.82617 5.67186 7.62409 6.4168H0.583968C0.261836 6.4168 0.000701904 6.67793 0.000701904 7.00006C0.000701904 7.32219 0.261836 7.58333 0.583968 7.58333H7.62409C7.93843 8.74204 9.13255 9.42655 10.2913 9.11224C11.0362 8.91016 11.6181 8.32826 11.8202 7.58333H13.416C13.7381 7.58333 13.9993 7.32219 13.9993 7.00006C13.9993 6.67793 13.7381 6.4168 13.416 6.4168Z" fill="#2A2A2A"/>
<path d="M13.416 11.2287H6.37646C6.0615 10.0698 4.86672 9.38572 3.70784 9.70069C2.96354 9.90298 2.38211 10.4844 2.17981 11.2287H0.583968C0.261836 11.2287 0.000701904 11.4899 0.000701904 11.812C0.000701904 12.1341 0.261836 12.3953 0.583968 12.3953H2.17981C2.49478 13.5541 3.68955 14.2383 4.84843 13.9233C5.59273 13.721 6.17417 13.1396 6.37646 12.3953H13.416C13.7381 12.3953 13.9993 12.1341 13.9993 11.812C13.9993 11.4899 13.7381 11.2287 13.416 11.2287Z" fill="#2A2A2A"/>
</g>
<defs>
<clipPath id="clip0_19_20">
<rect width="14" height="14" fill="white"/>
</clipPath>
</defs>
</svg>
